<?xml version="1.0" encoding="UTF-8" standalone="no"?><!DOCTYPE svg PUBLIC "-//W3C//DTD SVG 1.1//EN" "http://www.w3.org/Graphics/SVG/1.1/DTD/svg11.dtd"><svg width="100%" height="100%" viewBox="0 0 493 239" version="1.1" xmlns="http://www.w3.org/2000/svg" xmlnsXlink="http://www.w3.org/1999/xlink" xmlSpace="preserve" xmlnsSerif="http://www.serif.com/" style="fill-rule:evenodd;clip-rule:evenodd;"><rect id="genava-students-charts" x="0" y="0" width="492.754" height="238.049" style="fill:none;"/><g><clipPath id="_clip1"><rect x="2.492" y="5.434" width="484.5" height="231.483"/></clipPath><g clip-path="url(#_clip1)"><text x="68.675px" y="233.552px" style="font-family:'Rubik-Regular', 'Rubik';font-size:10.767px;">High School</text><text x="185.113px" y="233.552px" style="font-family:'Rubik-Regular', 'Rubik';font-size:10.767px;">Univ<tspan x="207.551px " y="233.552px ">e</tspan>rsity</text><g transform="matrix(1,0,0,1,-24.508,-21.5663)"><text x="293.949px" y="255.119px" style="font-family:'Rubik-Regular', 'Rubik';font-size:10.767px;">Appr<tspan x="317.973px " y="255.119px ">e</tspan>nticesh</text><text x="361.295px" y="255.119px" style="font-family:'Rubik-Regular', 'Rubik';font-size:10.767px;">i</text><text x="363.9px" y="255.119px" style="font-family:'Rubik-Regular', 'Rubik';font-size:10.767px;">p DU<tspan x="387.781px " y="255.119px ">A</tspan></text><text x="394.994px" y="255.119px" style="font-family:'Rubik-Regular', 'Rubik';font-size:10.767px;">L</text><text x="412.711px" y="255.119px" style="font-family:'Rubik-Regular', 'Rubik';font-size:10.767px;">V<tspan x="419.202px " y="255.119px ">o</tspan>cational <tspan x="467.711px " y="255.119px ">t</tspan>ra</text><text x="481.864px" y="255.119px" style="font-family:'Rubik-Regular', 'Rubik';font-size:10.767px;">i</text><text x="484.47px" y="255.119px" style="font-family:'Rubik-Regular', 'Rubik';font-size:10.767px;">n</text><text x="490.994px" y="255.119px" style="font-family:'Rubik-Regular', 'Rubik';font-size:10.767px;">i</text><text x="493.6px" y="255.119px" style="font-family:'Rubik-Regular', 'Rubik';font-size:10.767px;">ng</text></g><text x="32.048px" y="222.786px" style="font-family:'Rubik-Regular', 'Rubik';font-size:10.767px;">0</text><text x="9.358px" y="181.065px" style="font-family:'Rubik-Regular', 'Rubik';font-size:10.767px;">5,<tspan x="18.176px " y="181.065px ">0</tspan>00</text><text x="4.174px" y="139.344px" style="font-family:'Rubik-Regular', 'Rubik';font-size:10.767px;">10<tspan x="15.458px 17.977px " y="139.344px 139.344px ">,0</tspan>00</text><text x="4.364px" y="97.623px" style="font-family:'Rubik-Regular', 'Rubik';font-size:10.767px;">15,<tspan x="17.79px " y="97.623px ">0</tspan>00</text><text x="2.65px" y="55.902px" style="font-family:'Rubik-Regular', 'Rubik';font-size:10.767px;">20<tspan x="15.645px 18.165px " y="55.902px 55.902px ">,0</tspan>00</text><text x="2.839px" y="14.182px" style="font-family:'Rubik-Regular', 'Rubik';font-size:10.767px;">25,<tspan x="17.977px " y="14.182px ">0</tspan>00</text><g opacity="0.25"><g><clipPath id="_clip2"><rect x="46.052" y="10.114" width="441.12" height="168.48" clip-rule="nonzero"/></clipPath><g clip-path="url(#_clip2)"><path d="M46.851,177.7l440.141,0" style="fill:none;fill-rule:nonzero;stroke:#000;stroke-width:0.67px;"/><path d="M46.851,135.98l440.141,-0" style="fill:none;fill-rule:nonzero;stroke:#000;stroke-width:0.67px;"/><path d="M46.851,94.259l440.141,-0" style="fill:none;fill-rule:nonzero;stroke:#000;stroke-width:0.67px;"/><path d="M46.851,52.538l440.141,-0" style="fill:none;fill-rule:nonzero;stroke:#000;stroke-width:0.67px;"/><path d="M46.851,10.817l440.141,0" style="fill:none;fill-rule:nonzero;stroke:#000;stroke-width:0.67px;"/></g></g></g><g opacity="0.6"><clipPath id="_clip3"><rect x="46.052" y="218.674" width="441.12" height="1.44" clip-rule="nonzero"/></clipPath><g clip-path="url(#_clip3)"><path d="M46.851,219.421l440.141,0" style="fill:none;fill-rule:nonzero;stroke:#000;stroke-width:0.67px;"/></g></g><clipPath id="_clip4"><rect x="46.851" y="87.074" width="103.728" height="132.347"/></clipPath><g clip-path="url(#_clip4)"><path d="M55.149,87.074l87.131,0c0.545,0 1.085,0.054 1.619,0.16c0.534,0.106 1.053,0.264 1.557,0.472c0.503,0.209 0.981,0.464 1.434,0.767c0.453,0.303 0.873,0.647 1.258,1.032c0.385,0.385 0.729,0.804 1.032,1.257c0.302,0.453 0.558,0.932 0.767,1.435c0.208,0.503 0.366,1.022 0.472,1.557c0.106,0.534 0.159,1.074 0.159,1.619l0,124.048c0,0.545 -0.053,1.085 -0.159,1.619c-0.106,0.534 -0.264,1.053 -0.472,1.557c-0.209,0.503 -0.465,0.981 -0.767,1.434c-0.303,0.453 -0.647,0.873 -1.032,1.258c-0.385,0.385 -0.805,0.729 -1.258,1.032c-0.453,0.303 -0.931,0.558 -1.434,0.767c-0.504,0.208 -1.023,0.366 -1.557,0.472c-0.534,0.106 -1.074,0.159 -1.619,0.159l-87.131,0c-0.545,0 -1.085,-0.053 -1.619,-0.159c-0.534,-0.106 -1.053,-0.264 -1.557,-0.472c-0.503,-0.209 -0.981,-0.464 -1.434,-0.767c-0.453,-0.303 -0.873,-0.647 -1.258,-1.032c-0.385,-0.385 -0.729,-0.805 -1.032,-1.258c-0.303,-0.453 -0.558,-0.931 -0.767,-1.434c-0.208,-0.504 -0.366,-1.023 -0.472,-1.557c-0.106,-0.534 -0.159,-1.074 -0.159,-1.619l-0,-124.048c-0,-0.545 0.053,-1.085 0.159,-1.619c0.106,-0.535 0.264,-1.054 0.472,-1.557c0.209,-0.503 0.464,-0.982 0.767,-1.435c0.303,-0.453 0.647,-0.872 1.032,-1.257c0.385,-0.385 0.805,-0.729 1.258,-1.032c0.453,-0.303 0.931,-0.558 1.434,-0.767c0.504,-0.208 1.023,-0.366 1.557,-0.472c0.534,-0.106 1.074,-0.16 1.619,-0.16Z" style="fill:#0496ff;fill-rule:nonzero;"/></g><clipPath id="_clip5"><rect x="158.989" y="10.976" width="103.728" height="208.446"/></clipPath><g clip-path="url(#_clip5)"><path d="M167.287,10.976l87.131,-0c0.545,-0 1.084,0.053 1.619,0.159c0.534,0.106 1.053,0.264 1.557,0.472c0.503,0.209 0.981,0.464 1.434,0.767c0.453,0.303 0.872,0.647 1.258,1.032c0.385,0.385 0.729,0.804 1.032,1.258c0.302,0.453 0.558,0.931 0.767,1.434c0.208,0.504 0.365,1.022 0.472,1.557c0.106,0.534 0.159,1.074 0.159,1.619l0,200.147c0,0.545 -0.053,1.085 -0.159,1.619c-0.107,0.534 -0.264,1.053 -0.472,1.557c-0.209,0.503 -0.465,0.981 -0.767,1.434c-0.303,0.453 -0.647,0.873 -1.032,1.258c-0.386,0.385 -0.805,0.729 -1.258,1.032c-0.453,0.303 -0.931,0.558 -1.434,0.767c-0.504,0.208 -1.023,0.366 -1.557,0.472c-0.535,0.106 -1.074,0.159 -1.619,0.159l-87.131,0c-0.545,0 -1.085,-0.053 -1.619,-0.159c-0.534,-0.106 -1.053,-0.264 -1.557,-0.472c-0.503,-0.209 -0.981,-0.464 -1.434,-0.767c-0.453,-0.303 -0.873,-0.647 -1.258,-1.032c-0.385,-0.385 -0.729,-0.805 -1.032,-1.258c-0.303,-0.453 -0.558,-0.931 -0.767,-1.434c-0.208,-0.504 -0.366,-1.023 -0.472,-1.557c-0.106,-0.534 -0.159,-1.074 -0.159,-1.619l-0,-200.147c-0,-0.545 0.053,-1.085 0.159,-1.619c0.106,-0.535 0.264,-1.053 0.472,-1.557c0.209,-0.503 0.464,-0.981 0.767,-1.434c0.303,-0.454 0.647,-0.873 1.032,-1.258c0.385,-0.385 0.805,-0.729 1.258,-1.032c0.453,-0.303 0.931,-0.558 1.434,-0.767c0.504,-0.208 1.023,-0.366 1.557,-0.472c0.534,-0.106 1.074,-0.159 1.619,-0.159Z" style="fill:#0496ff;fill-rule:nonzero;"/></g><clipPath id="_clip6"><rect x="271.127" y="172.368" width="103.728" height="47.053"/></clipPath><g clip-path="url(#_clip6)"><path d="M279.425,172.368l87.131,0c0.545,0 1.084,0.054 1.619,0.16c0.534,0.106 1.053,0.264 1.556,0.472c0.504,0.209 0.982,0.464 1.435,0.767c0.453,0.303 0.872,0.647 1.258,1.032c0.385,0.385 0.729,0.804 1.032,1.257c0.302,0.453 0.558,0.932 0.766,1.435c0.209,0.503 0.366,1.022 0.473,1.557c0.106,0.534 0.159,1.074 0.159,1.619l0,38.754c0,0.545 -0.053,1.085 -0.159,1.619c-0.107,0.534 -0.264,1.053 -0.473,1.557c-0.208,0.503 -0.464,0.981 -0.766,1.434c-0.303,0.453 -0.647,0.873 -1.032,1.258c-0.386,0.385 -0.805,0.729 -1.258,1.032c-0.453,0.303 -0.931,0.558 -1.435,0.767c-0.503,0.208 -1.022,0.366 -1.556,0.472c-0.535,0.106 -1.074,0.159 -1.619,0.159l-87.131,0c-0.545,0 -1.085,-0.053 -1.619,-0.159c-0.535,-0.106 -1.053,-0.264 -1.557,-0.472c-0.503,-0.209 -0.981,-0.464 -1.435,-0.767c-0.453,-0.303 -0.872,-0.647 -1.257,-1.032c-0.385,-0.385 -0.729,-0.805 -1.032,-1.258c-0.303,-0.453 -0.558,-0.931 -0.767,-1.434c-0.208,-0.504 -0.366,-1.023 -0.472,-1.557c-0.106,-0.534 -0.159,-1.074 -0.159,-1.619l-0,-38.754c-0,-0.545 0.053,-1.085 0.159,-1.619c0.106,-0.535 0.264,-1.054 0.472,-1.557c0.209,-0.503 0.464,-0.982 0.767,-1.435c0.303,-0.453 0.647,-0.872 1.032,-1.257c0.385,-0.385 0.804,-0.729 1.257,-1.032c0.454,-0.303 0.932,-0.558 1.435,-0.767c0.504,-0.208 1.022,-0.366 1.557,-0.472c0.534,-0.106 1.074,-0.16 1.619,-0.16Z" style="fill:#0496ff;fill-rule:nonzero;"/></g><clipPath id="_clip7"><rect x="383.264" y="184.209" width="103.728" height="35.212"/></clipPath><g clip-path="url(#_clip7)"><path d="M391.563,184.209l87.131,-0c0.545,-0 1.084,0.053 1.619,0.159c0.534,0.107 1.053,0.264 1.556,0.472c0.504,0.209 0.982,0.465 1.435,0.767c0.453,0.303 0.872,0.647 1.257,1.032c0.386,0.386 0.73,0.805 1.032,1.258c0.303,0.453 0.559,0.931 0.767,1.434c0.209,0.504 0.366,1.023 0.473,1.557c0.106,0.534 0.159,1.074 0.159,1.619l0,26.914c0,0.545 -0.053,1.085 -0.159,1.619c-0.107,0.534 -0.264,1.053 -0.473,1.557c-0.208,0.503 -0.464,0.981 -0.767,1.434c-0.302,0.453 -0.646,0.873 -1.032,1.258c-0.385,0.385 -0.804,0.729 -1.257,1.032c-0.453,0.303 -0.931,0.558 -1.435,0.767c-0.503,0.208 -1.022,0.366 -1.556,0.472c-0.535,0.106 -1.074,0.159 -1.619,0.159l-87.131,0c-0.545,0 -1.085,-0.053 -1.619,-0.159c-0.535,-0.106 -1.054,-0.264 -1.557,-0.472c-0.503,-0.209 -0.982,-0.464 -1.435,-0.767c-0.453,-0.303 -0.872,-0.647 -1.257,-1.032c-0.385,-0.385 -0.729,-0.805 -1.032,-1.258c-0.303,-0.453 -0.558,-0.931 -0.767,-1.434c-0.208,-0.504 -0.366,-1.023 -0.472,-1.557c-0.106,-0.534 -0.16,-1.074 -0.16,-1.619l0,-26.914c0,-0.545 0.054,-1.085 0.16,-1.619c0.106,-0.534 0.264,-1.053 0.472,-1.557c0.209,-0.503 0.464,-0.981 0.767,-1.434c0.303,-0.453 0.647,-0.872 1.032,-1.258c0.385,-0.385 0.804,-0.729 1.257,-1.032c0.453,-0.302 0.932,-0.558 1.435,-0.767c0.503,-0.208 1.022,-0.365 1.557,-0.472c0.534,-0.106 1.074,-0.159 1.619,-0.159Z" style="fill:#0496ff;fill-rule:nonzero;"/></g></g></g></svg>