<?xml version="1.0" encoding="UTF-8" standalone="no"?><!DOCTYPE svg PUBLIC "-//W3C//DTD SVG 1.1//EN" "http://www.w3.org/Graphics/SVG/1.1/DTD/svg11.dtd"><svg width="100%" height="100%" viewBox="0 0 493 239" version="1.1" xmlns="http://www.w3.org/2000/svg" xmlnsXlink="http://www.w3.org/1999/xlink" xmlSpace="preserve" xmlnsSerif="http://www.serif.com/" style="fill-rule:evenodd;clip-rule:evenodd;"><rect id="lausanne-students-charts" x="0" y="0.705" width="492.754" height="238.049" style="fill:none;"/><g><clipPath id="_clip1"><rect x="2.529" y="6.139" width="484.5" height="231.483"/></clipPath><g clip-path="url(#_clip1)"><text x="68.712px" y="234.257px" style="font-family:'Rubik-Regular', 'Rubik';font-size:10.767px;">High School</text><text x="185.15px" y="234.257px" style="font-family:'Rubik-Regular', 'Rubik';font-size:10.767px;">Univ<tspan x="207.588px " y="234.257px ">e</tspan>rsity</text><g transform="matrix(1,0,0,1,-24.4712,-263.111)"><text x="293.949px" y="497.369px" style="font-family:'Rubik-Regular', 'Rubik';font-size:10.767px;">Appr<tspan x="317.973px " y="497.369px ">e</tspan>nticesh</text><text x="361.295px" y="497.369px" style="font-family:'Rubik-Regular', 'Rubik';font-size:10.767px;">i</text><text x="363.9px" y="497.369px" style="font-family:'Rubik-Regular', 'Rubik';font-size:10.767px;">p DU<tspan x="387.781px " y="497.369px ">A</tspan></text><text x="394.994px" y="497.369px" style="font-family:'Rubik-Regular', 'Rubik';font-size:10.767px;">L</text><text x="412.711px" y="497.369px" style="font-family:'Rubik-Regular', 'Rubik';font-size:10.767px;">V<tspan x="419.202px " y="497.369px ">o</tspan>cational <tspan x="467.711px " y="497.369px ">t</tspan>ra</text><text x="481.864px" y="497.369px" style="font-family:'Rubik-Regular', 'Rubik';font-size:10.767px;">i</text><text x="484.47px" y="497.369px" style="font-family:'Rubik-Regular', 'Rubik';font-size:10.767px;">n</text><text x="490.994px" y="497.369px" style="font-family:'Rubik-Regular', 'Rubik';font-size:10.767px;">i</text><text x="493.6px" y="497.369px" style="font-family:'Rubik-Regular', 'Rubik';font-size:10.767px;">ng</text></g><text x="32.085px" y="223.491px" style="font-family:'Rubik-Regular', 'Rubik';font-size:10.767px;">0</text><text x="9.395px" y="188.723px" style="font-family:'Rubik-Regular', 'Rubik';font-size:10.767px;">5,<tspan x="18.213px " y="188.723px ">0</tspan>00</text><text x="4.211px" y="153.956px" style="font-family:'Rubik-Regular', 'Rubik';font-size:10.767px;">10<tspan x="15.495px 18.014px " y="153.956px 153.956px ">,0</tspan>00</text><text x="4.4px" y="119.189px" style="font-family:'Rubik-Regular', 'Rubik';font-size:10.767px;">15,<tspan x="17.826px " y="119.189px ">0</tspan>00</text><text x="2.687px" y="84.421px" style="font-family:'Rubik-Regular', 'Rubik';font-size:10.767px;">20<tspan x="15.682px 18.201px " y="84.421px 84.421px ">,0</tspan>00</text><text x="2.876px" y="49.654px" style="font-family:'Rubik-Regular', 'Rubik';font-size:10.767px;">25,<tspan x="18.014px " y="49.654px ">0</tspan>00</text><text x="2.613px" y="14.887px" style="font-family:'Rubik-Regular', 'Rubik';font-size:10.767px;">30<tspan x="15.759px 18.278px " y="14.887px 14.887px ">,0</tspan>00</text><g opacity="0.25"><g><clipPath id="_clip2"><rect x="46.089" y="10.729" width="441.12" height="175.2" clip-rule="nonzero"/></clipPath><g clip-path="url(#_clip2)"><path d="M46.888,185.359l440.141,-0" style="fill:none;fill-rule:nonzero;stroke:#000;stroke-width:0.67px;"/><path d="M46.888,150.591l440.141,0" style="fill:none;fill-rule:nonzero;stroke:#000;stroke-width:0.67px;"/><path d="M46.888,115.824l440.141,0" style="fill:none;fill-rule:nonzero;stroke:#000;stroke-width:0.67px;"/><path d="M46.888,81.057l440.141,-0" style="fill:none;fill-rule:nonzero;stroke:#000;stroke-width:0.67px;"/><path d="M46.888,46.289l440.141,0" style="fill:none;fill-rule:nonzero;stroke:#000;stroke-width:0.67px;"/><path d="M46.888,11.522l440.141,-0" style="fill:none;fill-rule:nonzero;stroke:#000;stroke-width:0.67px;"/></g></g></g><g opacity="0.6"><clipPath id="_clip3"><rect x="46.089" y="219.289" width="441.12" height="1.68" clip-rule="nonzero"/></clipPath><g clip-path="url(#_clip3)"><path d="M46.888,220.126l440.141,0" style="fill:none;fill-rule:nonzero;stroke:#000;stroke-width:0.67px;"/></g></g><clipPath id="_clip4"><rect x="46.888" y="127.631" width="103.728" height="92.495"/></clipPath><g clip-path="url(#_clip4)"><path d="M55.186,127.631l87.131,0c0.545,0 1.084,0.053 1.619,0.159c0.534,0.107 1.053,0.264 1.556,0.473c0.504,0.208 0.982,0.464 1.435,0.767c0.453,0.302 0.872,0.646 1.258,1.031c0.385,0.386 0.729,0.805 1.032,1.258c0.302,0.453 0.558,0.931 0.766,1.435c0.209,0.503 0.366,1.022 0.473,1.556c0.106,0.535 0.159,1.074 0.159,1.619l0,84.197c0,0.545 -0.053,1.085 -0.159,1.619c-0.107,0.534 -0.264,1.053 -0.473,1.557c-0.208,0.503 -0.464,0.981 -0.766,1.434c-0.303,0.453 -0.647,0.873 -1.032,1.258c-0.386,0.385 -0.805,0.729 -1.258,1.032c-0.453,0.302 -0.931,0.558 -1.435,0.767c-0.503,0.208 -1.022,0.366 -1.556,0.472c-0.535,0.106 -1.074,0.159 -1.619,0.159l-87.131,0c-0.545,0 -1.085,-0.053 -1.619,-0.159c-0.535,-0.106 -1.053,-0.264 -1.557,-0.472c-0.503,-0.209 -0.981,-0.465 -1.435,-0.767c-0.453,-0.303 -0.872,-0.647 -1.257,-1.032c-0.385,-0.385 -0.729,-0.805 -1.032,-1.258c-0.303,-0.453 -0.558,-0.931 -0.767,-1.434c-0.208,-0.504 -0.366,-1.023 -0.472,-1.557c-0.106,-0.534 -0.159,-1.074 -0.159,-1.619l-0,-84.197c-0,-0.545 0.053,-1.084 0.159,-1.619c0.106,-0.534 0.264,-1.053 0.472,-1.556c0.209,-0.504 0.464,-0.982 0.767,-1.435c0.303,-0.453 0.647,-0.872 1.032,-1.258c0.385,-0.385 0.804,-0.729 1.257,-1.032c0.454,-0.302 0.932,-0.558 1.435,-0.766c0.504,-0.209 1.022,-0.366 1.557,-0.473c0.534,-0.106 1.074,-0.159 1.619,-0.159Z" style="fill:#0496ff;fill-rule:nonzero;"/></g><clipPath id="_clip5"><rect x="159.025" y="13.872" width="103.728" height="206.254"/></clipPath><g clip-path="url(#_clip5)"><path d="M167.324,13.872l87.131,0c0.545,0 1.084,0.053 1.619,0.16c0.534,0.106 1.053,0.263 1.556,0.472c0.504,0.208 0.982,0.464 1.435,0.767c0.453,0.302 0.872,0.646 1.258,1.032c0.385,0.385 0.729,0.804 1.031,1.257c0.303,0.453 0.559,0.931 0.767,1.435c0.209,0.503 0.366,1.022 0.473,1.557c0.106,0.534 0.159,1.074 0.159,1.618l0,197.956c-0,0.545 -0.053,1.085 -0.159,1.619c-0.107,0.534 -0.264,1.053 -0.473,1.557c-0.208,0.503 -0.464,0.981 -0.767,1.434c-0.302,0.453 -0.646,0.873 -1.031,1.258c-0.386,0.385 -0.805,0.729 -1.258,1.032c-0.453,0.302 -0.931,0.558 -1.435,0.767c-0.503,0.208 -1.022,0.366 -1.556,0.472c-0.535,0.106 -1.074,0.159 -1.619,0.159l-87.131,0c-0.545,0 -1.085,-0.053 -1.619,-0.159c-0.535,-0.106 -1.054,-0.264 -1.557,-0.472c-0.503,-0.209 -0.982,-0.465 -1.435,-0.767c-0.453,-0.303 -0.872,-0.647 -1.257,-1.032c-0.385,-0.385 -0.729,-0.805 -1.032,-1.258c-0.303,-0.453 -0.558,-0.931 -0.767,-1.434c-0.208,-0.504 -0.366,-1.023 -0.472,-1.557c-0.106,-0.534 -0.16,-1.074 -0.16,-1.619l0,-197.956c0,-0.544 0.054,-1.084 0.16,-1.618c0.106,-0.535 0.264,-1.054 0.472,-1.557c0.209,-0.504 0.464,-0.982 0.767,-1.435c0.303,-0.453 0.647,-0.872 1.032,-1.257c0.385,-0.386 0.804,-0.73 1.257,-1.032c0.453,-0.303 0.932,-0.559 1.435,-0.767c0.503,-0.209 1.022,-0.366 1.557,-0.472c0.534,-0.107 1.074,-0.16 1.619,-0.16Z" style="fill:#0496ff;fill-rule:nonzero;"/></g><clipPath id="_clip6"><rect x="271.163" y="117.646" width="103.728" height="102.48"/></clipPath><g clip-path="url(#_clip6)"><path d="M279.462,117.646l87.131,-0c0.545,-0 1.084,0.053 1.619,0.159c0.534,0.107 1.053,0.264 1.556,0.472c0.504,0.209 0.982,0.465 1.435,0.767c0.453,0.303 0.872,0.647 1.257,1.032c0.386,0.386 0.73,0.805 1.032,1.258c0.303,0.453 0.559,0.931 0.767,1.434c0.209,0.504 0.366,1.023 0.472,1.557c0.107,0.535 0.16,1.074 0.16,1.619l-0,94.182c-0,0.545 -0.053,1.085 -0.16,1.619c-0.106,0.534 -0.263,1.053 -0.472,1.557c-0.208,0.503 -0.464,0.981 -0.767,1.434c-0.302,0.453 -0.646,0.873 -1.032,1.258c-0.385,0.385 -0.804,0.729 -1.257,1.032c-0.453,0.302 -0.931,0.558 -1.435,0.767c-0.503,0.208 -1.022,0.366 -1.556,0.472c-0.535,0.106 -1.074,0.159 -1.619,0.159l-87.131,0c-0.545,0 -1.085,-0.053 -1.619,-0.159c-0.535,-0.106 -1.054,-0.264 -1.557,-0.472c-0.503,-0.209 -0.982,-0.465 -1.435,-0.767c-0.453,-0.303 -0.872,-0.647 -1.257,-1.032c-0.385,-0.385 -0.729,-0.805 -1.032,-1.258c-0.303,-0.453 -0.558,-0.931 -0.767,-1.434c-0.209,-0.504 -0.366,-1.023 -0.472,-1.557c-0.107,-0.534 -0.16,-1.074 -0.16,-1.619l0,-94.182c0,-0.545 0.053,-1.084 0.16,-1.619c0.106,-0.534 0.263,-1.053 0.472,-1.557c0.209,-0.503 0.464,-0.981 0.767,-1.434c0.303,-0.453 0.647,-0.872 1.032,-1.258c0.385,-0.385 0.804,-0.729 1.257,-1.032c0.453,-0.302 0.932,-0.558 1.435,-0.767c0.503,-0.208 1.022,-0.365 1.557,-0.472c0.534,-0.106 1.074,-0.159 1.619,-0.159Z" style="fill:#0496ff;fill-rule:nonzero;"/></g><clipPath id="_clip7"><rect x="383.301" y="193.981" width="103.728" height="26.145"/></clipPath><g clip-path="url(#_clip7)"><path d="M391.599,193.981l87.132,0c0.544,0 1.084,0.053 1.618,0.159c0.535,0.107 1.054,0.264 1.557,0.473c0.504,0.208 0.982,0.464 1.435,0.767c0.453,0.302 0.872,0.646 1.257,1.032c0.386,0.385 0.73,0.804 1.032,1.257c0.303,0.453 0.559,0.931 0.767,1.435c0.209,0.503 0.366,1.022 0.472,1.556c0.107,0.535 0.16,1.074 0.16,1.619l-0,17.847c-0,0.545 -0.053,1.085 -0.16,1.619c-0.106,0.534 -0.263,1.053 -0.472,1.557c-0.208,0.503 -0.464,0.981 -0.767,1.434c-0.302,0.453 -0.646,0.873 -1.032,1.258c-0.385,0.385 -0.804,0.729 -1.257,1.032c-0.453,0.302 -0.931,0.558 -1.435,0.767c-0.503,0.208 -1.022,0.366 -1.557,0.472c-0.534,0.106 -1.074,0.159 -1.618,0.159l-87.132,0c-0.544,0 -1.084,-0.053 -1.618,-0.159c-0.535,-0.106 -1.054,-0.264 -1.557,-0.472c-0.504,-0.209 -0.982,-0.465 -1.435,-0.767c-0.453,-0.303 -0.872,-0.647 -1.257,-1.032c-0.386,-0.385 -0.73,-0.805 -1.032,-1.258c-0.303,-0.453 -0.559,-0.931 -0.767,-1.434c-0.209,-0.504 -0.366,-1.023 -0.472,-1.557c-0.107,-0.534 -0.16,-1.074 -0.16,-1.619l0,-17.847c0,-0.545 0.053,-1.084 0.16,-1.619c0.106,-0.534 0.263,-1.053 0.472,-1.556c0.208,-0.504 0.464,-0.982 0.767,-1.435c0.302,-0.453 0.646,-0.872 1.032,-1.257c0.385,-0.386 0.804,-0.73 1.257,-1.032c0.453,-0.303 0.931,-0.559 1.435,-0.767c0.503,-0.209 1.022,-0.366 1.557,-0.472c0.534,-0.107 1.074,-0.16 1.618,-0.16Z" style="fill:#0496ff;fill-rule:nonzero;"/></g></g></g></svg>